{"title":"Brooklyns Finest (2009) DVDRip XviD-MAX","uid":5645216,"size":1468256599,"categoryP":"video","categoryS":"movies","magnet":"?xt=urn:btih:638ad883d95c6342d93da2822c183cc0f0416ea0&amp;dn=Brooklyns+Finest+%282009%29+DVDRip+XviD-MAX&amp;tr=udp%3A%2F%2Ftracker.openbittorrent.com%3A80&amp;tr=udp%3A%2F%2Fopen.demonii.com%3A1337&amp;tr=udp%3A%2F%2Ftracker.coppersurfer.tk%3A6969&amp;tr=udp%3A%2F%2Fexodus.desync.com%3A6969","seeders":8,"leechers":0,"uploader":"extremezone","files":-1,"time":1277262814,"description":"Brooklyns.Finest.720p.Bluray.x264-CBGB  &lt;a href=&quot;\nhttp://thepiratebay.se/torrent/5645253/Brooklyns.Finest.720p.Bluray.x264-CBGB&quot; rel=&quot;nofollow&quot; target=&quot;_NEW&quot;&gt;\nhttp://thepiratebay.se/torrent/5645253/Brooklyns.Finest.720p.Bluray.x264-CBGB&lt;/a&gt;\n\nBrooklyns Finest (2009) DVDRip XviD-MAX\n\nFormat                           : AVI\nFormat/Info                      : Audio Video Interleave\nFile size                        : 1.37 GiB\nDuration                         : 2h 12mn\nOverall bit rate                 : 1 473 Kbps\nWriting application              : VirtualDubMod 1.5.10.2 (build 2542/release)\nWriting library                  : VirtualDubMod build 2542/release\nOriginal source form             : MAX TORRENTZ\nCopyright                        : SIGISMUNT\n\nVideo\nID                               : 0\nFormat                           : MPEG-4 Visual\nFormat profile                   : AdvancedSimple@L5\nFormat settings, BVOP            : Yes\nFormat settings, QPel            : No\nFormat settings, GMC             : No warppoints\nFormat settings, Matrix          : Default (MPEG)\nMuxing mode                      : Packed bitstream\nCodec ID                         : XVID\nCodec ID/Hint                    : XviD\nDuration                         : 2h 12mn\nBit rate                         : 1 016 Kbps\nWidth                            : 640 pixels\nHeight                           : 272 pixels\nDisplay aspect ratio             : 2.35:1\nFrame rate                       : 23.976 fps\nResolution                       : 24 bits\nColorimetry                      : 4:2:0\nScan type                        : Progressive\nBits/(Pixel*Frame)               : 0.243\nStream size                      : 966 MiB (69%)\nWriting library                  : XviD 1.2.1 (UTC 2008-12-04)\n\nAudio\nID                               : 1\nFormat                           : AC-3\nFormat/Info                      : Audio Coding 3\nCodec ID                         : 2000\nDuration                         : 2h 12mn\nBit rate mode                    : Constant\nBit rate                         : 448 Kbps\nChannel(s)                       : 6 channels\nChannel positions                : Front: L C R, Surround: L R, LFE\nSampling rate                    : 48.0 KHz\nStream size                      : 425 MiB (30%)\nAlignment                        : Split accross interleaves\nInterleave, duration             : 42 ms (1.00 video frame)\nInterleave, preload duration     : 500 ms &lt;a href=&quot;\nhttp://www.imdb.com/title/tt1210042/&quot; rel=&quot;nofollow&quot; target=&quot;_NEW&quot;&gt;\nhttp://www.imdb.com/title/tt1210042/&lt;/a&gt;\n\nScreens: &lt;a href=&quot;\nhttp://www.postimg.com/image/17000/16797.jpg&quot; rel=&quot;nofollow&quot; target=&quot;_NEW&quot;&gt;\nhttp://www.postimg.com/image/17000/16797.jpg&lt;/a&gt; &lt;a href=&quot;\nhttp://www.postimg.com/image/17000/16798.jpg&quot; rel=&quot;nofollow&quot; target=&quot;_NEW&quot;&gt;\nhttp://www.postimg.com/image/17000/16798.jpg&lt;/a&gt; &lt;a href=&quot;\nhttp://www.postimg.com/image/17000/16799.jpg&quot; rel=&quot;nofollow&quot; target=&quot;_NEW&quot;&gt;\nhttp://www.postimg.com/image/17000/16799.jpg&lt;/a&gt; &lt;a href=&quot;\nhttp://www.postimg.com/image/17000/16800.jpg&quot; rel=&quot;nofollow&quot; target=&quot;_NEW&quot;&gt;\nhttp://www.postimg.com/image/17000/16800.jpg&lt;/a&gt; &lt;a href=&quot;\nhttp://www.postimg.com/image/17000/16801.jpg&quot; rel=&quot;nofollow&quot; target=&quot;_NEW&quot;&gt;\nhttp://www.postimg.com/image/17000/16801.jpg&lt;/a&gt;\n\nScreenCaps: &lt;a href=&quot;\nhttp://www.postimg.com/image/17000/16802.jpg&quot; rel=&quot;nofollow&quot; target=&quot;_NEW&quot;&gt;\nhttp://www.postimg.com/image/17000/16802.jpg&lt;/a&gt;\n\nBrooklyns Finest (2009) DVDRip XviD-MAX Torrent Free Download &lt;a href=&quot;\nhttp://thepiratebay.se/user/extremezone/0/7&quot; rel=&quot;nofollow&quot; target=&quot;_NEW&quot;&gt;\nhttp://thepiratebay.se/user/extremezone/0/7&lt;/a&gt;\n\nHow To Get Your Maxspeed (uTorrent)\n\nTorrent Client - Preferences - Bandwidth - Number of connections - Set aprox. 500 for each \nTorrent Client - Preferences - BiTorrent - Protocol Encryption - Forced\nBandwidth Allocation - High (Set download/upload limit - Unlimited)\nStop Other Active Torrents - Start downloading and wait for connections\nEnjoy and Seed for at least 1:1 ratio. Don't forget to say thanks/leave reviews.\nAlso please spread the link where you found this torrent to your friends.\nRecommended player for all our movies VLC PLAYER.","torrent":{"xt":"urn:btih:638ad883d95c6342d93da2822c183cc0f0416ea0","amp;dn":"Brooklyns+Finest+%282009%29+DVDRip+XviD-MAX","amp;tr":["udp%3A%2F%2Ftracker.openbittorrent.com%3A80","udp%3A%2F%2Fopen.demonii.com%3A1337","udp%3A%2F%2Ftracker.coppersurfer.tk%3A6969","udp%3A%2F%2Fexodus.desync.com%3A6969"],"infoHash":"638ad883d95c6342d93da2822c183cc0f0416ea0","infoHashBuffer":{"type":"Buffer","data":[99,138,216,131,217,92,99,66,217,61,162,130,44,24,60,192,240,65,110,160]},"announce":[],"urlList":[]}}